<svg xmlns="http://www.w3.org/2000/svg" xmlns:xlink="http://www.w3.org/1999/xlink" viewBox="0 0 123.12 103.12"><defs><style>.cls-1{isolation:isolate;}.cls-2,.cls-3,.cls-5{stroke:#000;stroke-miterlimit:10;stroke-width:0.25px;}.cls-2{fill:url(#Degradado_sin_nombre_13);}.cls-3{fill:url(#Degradado_sin_nombre_12);}.cls-4{fill:#fff;}.cls-5{fill:#5eb130;mix-blend-mode:hard-light;}</style><radialGradient id="Degradado_sin_nombre_13" cx="110.12" cy="-0.48" r="2.89" gradientTransform="translate(4.83 -9) rotate(6.29) scale(1.02 1.03)" gradientUnits="userSpaceOnUse"><stop offset="0" stop-color="#009fe3"/><stop offset="1" stop-color="#312783"/></radialGradient><linearGradient id="Degradado_sin_nombre_12" x1="8.42" y1="33.13" x2="105.67" y2="33.13" gradientTransform="matrix(0.99, 0.11, -0.11, 0.99, 4.86, -7)" xlink:href="#Degradado_sin_nombre_13"/></defs><g class="cls-1"><g id="Capa_2" data-name="Capa 2"><path class="cls-2" d="M119.67,3c-.5,2-2.07,2.48-3.74,2.44a2.62,2.62,0,0,1-2.6-2.87c.1-1.81,1.79-2.5,3.33-2.48A3,3,0,0,1,119.67,3Z"/></g><g id="Capa_3" data-name="Capa 3"><path class="cls-3" d="M98.09,6.17l-23.29,0S58,23.54,58.57,23.6,43,7.37,43,7.37l-17.1.54L12,22.78S6,27.24,12.78,33.61,43.42,62.84,43.42,62.84s4.5,3.75,7.85.62A39.92,39.92,0,0,0,57,56.62s.31-1.24,2,.22,7.66,6.72,7.66,6.72.55,1.79,3-1.09,36.78-41.9,36.78-41.9,1.39-2.39-1.38-4.14.52-5.47.52-5.47,4.14-4.94,4.17-5.31-.14-2.34-2.16-1.07S87,30.1,82.64,33.18s-13,11.61-15.93,10.68-3.1-2.57-5.31.11-7.71,8.83-7.71,8.83L33.37,34.54s-1.84-4.32,1.26-6.95,2.82-4.1,4.35-3.69S51.83,35.79,51.83,35.79s6.4,5,10.4.72S74.06,22.83,74.06,22.83s8.65-1.35,9.87-1.31a11.08,11.08,0,0,0,9.55-4.46c3.27-4.58,6.68-9.4,6.68-9.4S101.53,6.18,98.09,6.17Z"/><polygon class="cls-4" points="75.53 7.26 69.94 12.72 82.23 7.32 75.53 7.26"/><text/><polygon class="cls-4" points="26.22 8.74 23.58 11.62 26.22 9.99 42.78 9.4 45.18 11.2 42.9 8.14 26.22 8.74"/></g><g id="Capa_4" data-name="Capa 4"><path class="cls-5" d="M54.19,52.8l4.15,3.36,8.81,7.4s.12.85,1.33.39S106.16,21.5,106.16,21.5a2.86,2.86,0,0,0,.71-3.86c-1.43-2.3-2.51-1.59-2.37-2.85a7.51,7.51,0,0,1,.9-2.87c.28-.41,4.88-6.27,4.88-6.27s0-2.38-2-1.14S97.3,17.23,97.3,17.23L84.65,31.85s-13,11.21-17,12.08a16.08,16.08,0,0,1-2.93-1.21c-1.33-.74-2.49.92-2.49.92Z"/></g></g></svg>